<?xml version="1.0" encoding="UTF-8"?>
<svg id="Livello_1" xmlns="http://www.w3.org/2000/svg" version="1.1" viewBox="0 0 1080 1080">
  <!-- Generator: Adobe Illustrator 29.1.0, SVG Export Plug-In . SVG Version: 2.1.0 Build 142)  -->
  <defs>
    <style>
      .st0 {
        fill: #007231;
      }

      .st1 {
        fill: #f07c33;
      }
    </style>
  </defs>
  <path class="st0" d="M890.42,45.15h133.97c3.82,0,6.93,3.1,6.93,6.93v133.97c0,78.03-63.35,141.38-141.38,141.38h-133.97c-3.82,0-6.93-3.1-6.93-6.93v-133.97c0-78.03,63.35-141.38,141.38-141.38Z"/>
  <path class="st1" d="M232.45,986.62c-56.5-31.65-101.25-75.55-134.26-131.71-33.02-56.16-49.51-119.61-49.51-190.4s16.49-134.26,49.51-190.41c33.01-56.16,77.75-99.87,134.26-131.19,56.49-31.29,118.43-46.97,185.81-46.97s130.18,15.67,186.33,46.97c56.16,31.32,100.57,75.04,133.24,131.19,32.67,56.16,49,119.62,49,190.41s-16.34,134.24-49,190.4c-32.67,56.16-77.26,100.06-133.74,131.71-56.5,31.65-118.43,47.48-185.82,47.48s-129.32-15.83-185.81-47.48ZM539.24,798.26c29.61-33.34,44.42-77.93,44.42-133.74s-14.81-102.25-44.42-135.28c-29.6-33-69.94-49.52-120.98-49.52s-92.24,16.51-121.49,49.52c-29.27,33.03-43.9,78.1-43.9,135.28s14.63,101.24,43.9,134.24c29.26,33.03,69.76,49.52,121.49,49.52s91.38-16.66,120.98-50.02Z"/>
</svg>